<svg id="Layer_1" data-name="Layer 1" xmlns="http://www.w3.org/2000/svg" viewBox="0 0 40.25 34.87"><defs><style>.cls-1{fill:#666;}</style></defs><title>camera</title><path class="cls-1" d="M20.07,34.87H5.69A5.38,5.38,0,0,1,0,29.16Q0,20.06,0,11A5.38,5.38,0,0,1,5.54,5.37c1.28,0,2.56,0,3.83,0a.82.82,0,0,0,1-.67c.2-.64.45-1.26.69-1.88A4.18,4.18,0,0,1,15,0H25.2a4.17,4.17,0,0,1,4,2.82c.32.83.44,2,1.05,2.38s1.72.12,2.61.16A20.91,20.91,0,0,1,36,5.55a5.18,5.18,0,0,1,4.21,5.12q0,9.44,0,18.88a5.35,5.35,0,0,1-5.4,5.32C29.91,34.88,25,34.87,20.07,34.87Zm.1-24.15a9.4,9.4,0,1,0,9.35,9.41A9.39,9.39,0,0,0,20.17,10.72Z"/><path class="cls-1" d="M26.11,20.15a6,6,0,1,1-5.88-6A5.91,5.91,0,0,1,26.11,20.15Z"/></svg>